<svg width="15" height="10" viewBox="0 0 15 10" fill="none" xmlns="http://www.w3.org/2000/svg">
<path d="M13.8082 0H0.897647C0.659672 0.000311283 0.431533 0.0949844 0.263259 0.263258C0.0949845 0.431533 0.000311283 0.659672 0 0.897647V9.10235C0.000311283 9.34033 0.0949845 9.56847 0.263259 9.73674C0.431533 9.90501 0.659672 9.99969 0.897647 10H13.8082C14.0462 9.99969 14.2743 9.90501 14.4426 9.73674C14.6109 9.56847 14.7056 9.34033 14.7059 9.10235V0.897647C14.7056 0.659672 14.6109 0.431533 14.4426 0.263258C14.2743 0.0949844 14.0462 0.000311283 13.8082 0ZM7.35294 5.79412L1.10647 0.588235H13.5994L7.35294 5.79412ZM5.30824 4.85294L0.588235 9.05059V0.921765L5.30824 4.85294ZM5.76529 5.23412L7.16471 6.4C7.21756 6.44402 7.28416 6.46813 7.35294 6.46813C7.42172 6.46813 7.48833 6.44402 7.54118 6.4L8.94118 5.23529L13.6388 9.41177H1.06765L5.76529 5.23412ZM9.39765 4.85294L14.1176 0.921765V9.05059L9.39765 4.85294Z" fill="black" fill-opacity="0.3"/>
</svg>
